<svg id="Layer_1" data-name="Layer 1" xmlns="http://www.w3.org/2000/svg" viewBox="0 0 122.93 84.96"><defs><style>.cls-1,.cls-2{fill:none;}.cls-1{stroke:#000;stroke-miterlimit:10;stroke-width:0.75px;}</style></defs><path d="M514.22,409.49c.13.28.24.56.35.86a.88.88,0,0,1-.65,1.17c-9.93,1.76-18.21-5.3-17.24-15.25.26-2.61,1.84-5.35,3.5-7.5,4.89-6.31,10.09-12.37,15.23-18.49,10.27-12.23,20.64-24.38,30.83-36.68a15.38,15.38,0,0,1,14.54-5.89.88.88,0,0,1,.64,1.38c-.65.94-1.25,1.82-1.93,2.64-13.8,16.54-27.66,33-41.41,49.61-3.18,3.84-5.9,8-6.68,13.19C510.59,399.87,512,404.75,514.22,409.49Zm9.16-5.9a.88.88,0,0,1-1.44-.12c-2.09-3.69-1.74-9.05.69-12.78,2.76-4.24,8.85-6.68,14.74-5.73a.89.89,0,0,1,.53,1.45Zm37.27-16.18C555.28,394,550,400.6,544.5,407.08a13.22,13.22,0,0,1-13.19,4,.88.88,0,0,1-.48-1.37c1-1.34,1.81-2.58,2.8-3.72,5-5.78,10-11.61,15.2-17.21,3.16-3.4,7.25-4.28,12-4a.89.89,0,0,1,.68,1.37A14.35,14.35,0,0,1,560.65,387.41Zm19.06-12,.4-.61-15.85-19a8,8,0,0,0-12.29,0l-5.4,6.45a8,8,0,0,0,6.14,13.15Zm-8.39,32.22a84.83,84.83,0,0,1-6.61-7.78,2.43,2.43,0,0,1,.06-2.28c1.29-1.75,2.75-3.38,4.38-5.28a.9.9,0,0,1,1.36,0l14.81,17.84a.89.89,0,0,1-.62,1.45C579.48,411.9,575,411.26,571.32,407.61Zm23.51-.75c-5.82-6.61-11.34-13.48-17-20.25a4.18,4.18,0,0,1-.38-1c2.91-.74,5.79-1,8.46.16a16.63,16.63,0,0,1,6,3.86c6,6.86,11.8,14,17.65,21a2.69,2.69,0,0,1,.3.71C604,412.51,598.77,411.32,594.83,406.86Zm23.62-6.15-.05.23a2.29,2.29,0,0,1-4,1c-16.46-19.65-32.93-39.29-49.59-59.16a2.28,2.28,0,0,1,0-2.95l3-3.51a2.32,2.32,0,0,1,3.58.13l0,0q21.68,26,43.41,51.86C617.89,391.93,619.52,395.92,618.45,400.71Z" transform="translate(-496.23 -327.21)"/><path class="cls-1" d="M514.22,409.49c.13.28.24.56.35.86a.88.88,0,0,1-.65,1.17c-9.93,1.76-18.21-5.3-17.24-15.25.26-2.61,1.84-5.35,3.5-7.5,4.89-6.31,10.09-12.37,15.23-18.49,10.27-12.23,20.64-24.38,30.83-36.68a15.38,15.38,0,0,1,14.54-5.89.88.88,0,0,1,.64,1.38c-.65.94-1.25,1.82-1.93,2.64-13.8,16.54-27.66,33-41.41,49.61-3.18,3.84-5.9,8-6.68,13.19C510.59,399.87,512,404.75,514.22,409.49Zm9.16-5.9a.88.88,0,0,1-1.44-.12c-2.09-3.69-1.74-9.05.69-12.78,2.76-4.24,8.85-6.68,14.74-5.73a.89.89,0,0,1,.53,1.45Zm37.27-16.18C555.28,394,550,400.6,544.5,407.08a13.22,13.22,0,0,1-13.19,4,.88.88,0,0,1-.48-1.37c1-1.34,1.81-2.58,2.8-3.72,5-5.78,10-11.61,15.2-17.21,3.16-3.4,7.25-4.28,12-4a.89.89,0,0,1,.68,1.37A14.35,14.35,0,0,1,560.65,387.41Zm19.06-12,.4-.61-15.85-19a8,8,0,0,0-12.29,0l-5.4,6.45a8,8,0,0,0,6.14,13.15Zm-8.39,32.22a84.83,84.83,0,0,1-6.61-7.78,2.43,2.43,0,0,1,.06-2.28c1.29-1.75,2.75-3.38,4.38-5.28a.9.9,0,0,1,1.36,0l14.81,17.84a.89.89,0,0,1-.62,1.45C579.48,411.9,575,411.26,571.32,407.61Zm23.51-.75c-5.82-6.61-11.34-13.48-17-20.25a4.18,4.18,0,0,1-.38-1c2.91-.74,5.79-1,8.46.16a16.63,16.63,0,0,1,6,3.86c6,6.86,11.8,14,17.65,21a2.69,2.69,0,0,1,.3.71C604,412.51,598.77,411.32,594.83,406.86Zm23.62-6.15-.05.23a2.29,2.29,0,0,1-4,1c-16.46-19.65-32.93-39.29-49.59-59.16a2.28,2.28,0,0,1,0-2.95l3-3.51a2.32,2.32,0,0,1,3.58.13l0,0q21.68,26,43.41,51.86C617.89,391.93,619.52,395.92,618.45,400.71Z" transform="translate(-496.23 -327.21)"/><path class="cls-2" d="M560.78,327.71a.88.88,0,0,1,.64,1.38c-.65.94-1.25,1.82-1.93,2.64-13.8,16.54-27.66,33-41.41,49.61-3.18,3.84-5.9,8-6.68,13.19-.81,5.34.56,10.22,2.82,15,.13.28.24.56.35.86a.88.88,0,0,1-.65,1.17c-9.93,1.76-18.21-5.3-17.24-15.25.26-2.61,1.84-5.35,3.5-7.5,4.89-6.31,10.09-12.37,15.23-18.49,10.27-12.23,20.64-24.38,30.83-36.68A15.38,15.38,0,0,1,560.78,327.71Z" transform="translate(-496.23 -327.21)"/></svg>