<?xml version="1.0" standalone="no"?>
<!DOCTYPE svg PUBLIC "-//W3C//DTD SVG 20010904//EN"
 "http://www.w3.org/TR/2001/REC-SVG-20010904/DTD/svg10.dtd">
<svg version="1.0" xmlns="http://www.w3.org/2000/svg"
 width="124.000000pt" height="124.000000pt" viewBox="0 0 124.000000 124.000000"
 preserveAspectRatio="xMidYMid meet">
<metadata>
Created by potrace 1.14, written by Peter Selinger 2001-2017
</metadata>
<g transform="translate(0.000000,124.000000) scale(0.100000,-0.100000)"
fill="#000000" stroke="none">
<path d="M564 1036 c-19 -8 -78 -69 -145 -147 -266 -311 -399 -476 -410 -507
-32 -95 56 -198 156 -183 28 4 28 4 10 58 -20 59 -21 119 -2 164 12 29 168
225 322 404 104 122 173 210 169 217 -8 12 -66 8 -100 -6z"/>
<path d="M701 944 c-12 -15 -21 -31 -21 -37 0 -24 507 -622 528 -622 13 0 18
10 20 39 6 70 6 69 -162 266 -11 14 -88 105 -169 203 -82 97 -155 177 -162
177 -7 0 -23 -12 -34 -26z"/>
<path d="M585 789 c-11 -6 -40 -35 -64 -66 -53 -65 -60 -113 -23 -143 19 -16
43 -18 179 -18 87 1 161 3 166 5 10 6 -158 204 -186 220 -26 15 -45 15 -72 2z"/>
<path d="M337 465 c-48 -17 -67 -33 -84 -72 -16 -39 -16 -63 -2 -100 l10 -27
37 39 c72 77 134 156 129 162 -12 11 -54 11 -90 -2z"/>
<path d="M574 465 c-47 -20 -241 -235 -229 -255 9 -14 68 -13 101 2 26 12 228
248 219 256 -10 10 -65 8 -91 -3z"/>
<path d="M838 472 c-16 -2 -28 -6 -28 -9 0 -9 146 -186 182 -220 18 -17 49
-35 68 -40 38 -9 80 -6 80 6 0 11 -170 214 -194 231 -30 22 -77 36 -108 32z"/>
<path d="M707 375 c-35 -43 -31 -57 30 -118 48 -48 82 -61 142 -55 l32 3 -86
103 c-47 56 -87 102 -88 102 -1 0 -15 -16 -30 -35z"/>
</g>
</svg>
